<svg width="32" height="32" viewBox="0 0 32 32" fill="none" xmlns="http://www.w3.org/2000/svg">
  <defs>
    <!-- 主背景渐变 -->
    <linearGradient id="bg" x1="0%" y1="0%" x2="100%" y2="100%">
      <stop offset="0%" style="stop-color:#667eea"/>
      <stop offset="100%" style="stop-color:#764ba2"/>
    </linearGradient>
    
    <!-- 编辑器渐变 -->
    <linearGradient id="editor" x1="0%" y1="0%" x2="100%" y2="100%">
      <stop offset="0%" style="stop-color:#1a1a1a"/>
      <stop offset="100%" style="stop-color:#2d2d2d"/>
    </linearGradient>
    
    <!-- 代码颜色 -->
    <linearGradient id="code1" x1="0%" y1="0%" x2="100%" y2="0%">
      <stop offset="0%" style="stop-color:#e74c3c"/>
      <stop offset="100%" style="stop-color:#c0392b"/>
    </linearGradient>
    
    <linearGradient id="code2" x1="0%" y1="0%" x2="100%" y2="0%">
      <stop offset="0%" style="stop-color:#3498db"/>
      <stop offset="100%" style="stop-color:#2980b9"/>
    </linearGradient>
    
    <linearGradient id="code3" x1="0%" y1="0%" x2="100%" y2="0%">
      <stop offset="0%" style="stop-color:#f39c12"/>
      <stop offset="100%" style="stop-color:#e67e22"/>
    </linearGradient>
  </defs>
  
  <!-- 背景圆形 -->
  <circle cx="16" cy="16" r="15" fill="url(#bg)"/>
  
  <!-- 编辑器窗口 -->
  <rect x="4" y="6" width="24" height="20" rx="3" fill="url(#editor)"/>
  
  <!-- 窗口标题栏 -->
  <rect x="4" y="6" width="24" height="5" rx="3" fill="rgba(255,255,255,0.1)"/>
  
  <!-- 窗口控制按钮 -->
  <circle cx="7" cy="8.5" r="1" fill="#ff5f56"/>
  <circle cx="10" cy="8.5" r="1" fill="#ffbd2e"/>
  <circle cx="13" cy="8.5" r="1" fill="#27ca3f"/>
  
  <!-- 代码行 -->
  <rect x="6" y="14" width="8" height="1.5" rx="0.5" fill="url(#code1)" opacity="0.9"/>
  <rect x="6" y="17" width="12" height="1.5" rx="0.5" fill="url(#code2)" opacity="0.8"/>
  <rect x="6" y="20" width="6" height="1.5" rx="0.5" fill="url(#code3)" opacity="0.7"/>
  
  <!-- 预览区域 -->
  <rect x="20" y="14" width="6" height="6" rx="1" fill="rgba(46,204,113,0.3)" stroke="#2ecc71" stroke-width="0.5"/>
  <rect x="21" y="15" width="4" height="2" rx="0.5" fill="rgba(255,255,255,0.4)"/>
  
  <!-- 代码符号 -->
  <text x="16" y="24" fill="rgba(255,255,255,0.6)" font-family="monospace" font-size="4" text-anchor="middle">&lt;/&gt;</text>
</svg>